name E:\Dropbox\SEL\BOX\Experiment\240124_SUB1_PJH\c3d\XYZ\UpDown_TrcMot\15_10_trial1_D1_ExtLoadAPP1.mot
datacolumns 37
datarows 10
range 8.25 8.259
endheader

time	    ground_force1_vx	    ground_force1_vy	    ground_force1_vz	    ground_force1_px	    ground_force1_py	    ground_force1_pz	    ground_torque1_x	    ground_torque1_y	    ground_torque1_z	    ground_force2_vx	    ground_force2_vy	    ground_force2_vz	    ground_force2_px	    ground_force2_py	    ground_force2_pz	    ground_torque2_x	    ground_torque2_y	    ground_torque2_z	      hand_force3_vx	      hand_force3_vy	      hand_force3_vz	      hand_force3_px	      hand_force3_py	      hand_force3_pz	      hand_torque3_x	      hand_torque3_y	      hand_torque3_z	      hand_force4_vx	      hand_force4_vy	      hand_force4_vz	      hand_force4_px	      hand_force4_py	      hand_force4_pz	      hand_torque4_x	      hand_torque4_y	      hand_torque4_z	
8.25	         32.79450033	        360.13919348	         19.68553522	          0.22182855	          0.00000000	          0.17208653	          0.00000000	          0.08546136	          0.00000000	        -36.60745234	        403.98737179	         15.33140923	          0.57862422	          0.00000000	          0.18096808	          0.00000000	          0.20945014	          0.00000000	         -8.89570483	          1.31909249	          4.54601197	          0.24059899	          0.97559564	         -0.36479589	          0.00074301	          0.26718351	         -0.00100507	          7.78169680	          2.26162884	          4.33511267	          0.56003418	          0.97559564	         -0.36546717	         -0.00029435	         -0.11650225	          0.00052847	
8.251	         32.77854683	        360.45580150	         19.67435626	          0.22184571	          0.00000000	          0.17206762	          0.00000000	          0.08994872	          0.00000000	        -36.63114152	        404.60313723	         15.41624771	          0.57860832	          0.00000000	          0.18091722	          0.00000000	          0.20405011	          0.00000000	         -9.05986289	          1.39346485	          4.72153392	          0.24069611	          0.97559737	         -0.36468593	          0.00076292	          0.27545659	         -0.00105275	          7.89732614	          2.33078728	          4.41099290	          0.55992383	          0.97559737	         -0.36541789	         -0.00030070	         -0.11939051	          0.00054921	
8.252	         32.76409702	        360.77614123	         19.66188013	          0.22186257	          0.00000000	          0.17204868	          0.00000000	          0.09461477	          0.00000000	        -36.65568356	        405.22876531	         15.50016108	          0.57859247	          0.00000000	          0.18086724	          0.00000000	          0.19863248	          0.00000000	         -9.22216186	          1.46898038	          4.89856316	          0.24079601	          0.97559929	         -0.36457401	          0.00078227	          0.28352998	         -0.00109996	          8.01712035	          2.40247943	          4.49414256	          0.55980959	          0.97559929	         -0.36536658	         -0.00030578	         -0.12181644	          0.00056841	
8.253	         32.75115996	        361.10015606	         19.64812085	          0.22187915	          0.00000000	          0.17202969	          0.00000000	          0.09946268	          0.00000000	        -36.68098684	        405.86407080	         15.58308314	          0.57857663	          0.00000000	          0.18081810	          0.00000000	          0.19320631	          0.00000000	         -9.38242394	          1.54550851	          5.07672397	          0.24089840	          0.97560139	         -0.36446047	          0.00080099	          0.29137058	         -0.00114652	          8.14105200	          2.47661124	          4.58455589	          0.55969177	          0.97560139	         -0.36531333	         -0.00030953	         -0.12375507	          0.00058592	
8.254	         32.73974129	        361.42778486	         19.63309124	          0.22189544	          0.00000000	          0.17201062	          0.00000000	          0.10449522	          0.00000000	        -36.70695805	        406.50885429	         15.66494885	          0.57856080	          0.00000000	          0.18076978	          0.00000000	          0.18778063	          0.00000000	         -9.54048011	          1.62290910	          5.25562782	          0.24100298	          0.97560366	         -0.36434569	          0.00081900	          0.29894436	         -0.00119222	          8.26908935	          2.55307703	          4.68220734	          0.55957069	          0.97560366	         -0.36525827	         -0.00031191	         -0.12518169	          0.00060162	
8.255	         32.72984311	        361.75896173	         19.61680271	          0.22191144	          0.00000000	          0.17199145	          0.00000000	          0.10971461	          0.00000000	        -36.73350236	        407.16290222	         15.74569441	          0.57854496	          0.00000000	          0.18072224	          0.00000000	          0.18236440	          0.00000000	         -9.69617029	          1.70103211	          5.43487355	          0.24110941	          0.97560611	         -0.36423010	          0.00083621	          0.30621653	         -0.00123687	          8.40119620	          2.63175903	          4.78705070	          0.55944671	          0.97560611	         -0.36520150	         -0.00031285	         -0.12607199	          0.00061537	
8.256	         32.72146382	        362.09361576	         19.59926510	          0.22192716	          0.00000000	          0.17197215	          0.00000000	          0.11512261	          0.00000000	        -36.76052374	        407.82598702	         15.82525740	          0.57852908	          0.00000000	          0.18067545	          0.00000000	          0.17696646	          0.00000000	         -9.84934354	          1.77971729	          5.61404770	          0.24121735	          0.97560872	         -0.36411413	          0.00085255	          0.31315160	         -0.00128026	          8.53733178	          2.71252693	          4.89901840	          0.55932022	          0.97560872	         -0.36514319	         -0.00031230	         -0.12640210	          0.00062704	
8.257	         32.71459803	        362.43167084	         19.58048642	          0.22194259	          0.00000000	          0.17195270	          0.00000000	          0.12072041	          0.00000000	        -36.78792525	        408.49786719	         15.90357691	          0.57851314	          0.00000000	          0.18062939	          0.00000000	          0.17159551	          0.00000000	         -9.99985822	          1.85879386	          5.79272474	          0.24132639	          0.97561150	         -0.36399823	          0.00086794	          0.31971348	         -0.00132216	          8.67745061	          2.79523750	          5.01802076	          0.55919162	          0.97561150	         -0.36508347	         -0.00031021	         -0.12614879	          0.00063650	
8.258	         32.70923643	        362.77304542	         19.56047263	          0.22195773	          0.00000000	          0.17193308	          0.00000000	          0.12650866	          0.00000000	        -36.81560932	        409.17828754	         15.98059360	          0.57849713	          0.00000000	          0.18058400	          0.00000000	          0.16626006	          0.00000000	        -10.14758208	          1.93808018	          5.97046743	          0.24143614	          0.97561443	         -0.36388291	          0.00088228	          0.32586564	         -0.00136237	          8.82150241	          2.87973415	          5.14394533	          0.55906138	          0.97561443	         -0.36502252	         -0.00030652	         -0.12528947	          0.00064361	
8.259	         32.70536569	        363.11765236	         19.53922747	          0.22197259	          0.00000000	          0.17191326	          0.00000000	          0.13248745	          0.00000000	        -36.84347804	        409.86697934	         16.05624985	          0.57848103	          0.00000000	          0.18053925	          0.00000000	          0.16096842	          0.00000000	        -10.29239238	          2.01738347	          6.14682713	          0.24154615	          0.97561752	         -0.36376867	          0.00089551	          0.33157117	         -0.00140064	          8.96943194	          2.96584657	          5.27665619	          0.55892996	          0.97561752	         -0.36496053	         -0.00030119	         -0.12380237	          0.00064824	
